<svg xmlns="http://www.w3.org/2000/svg" width="1120" height="560" viewBox="0 0 1120 560">
<rect width="100%" height="100%" fill="#ffffff"/>
<style>
text { font-family: -apple-system, BlinkMacSystemFont, "Segoe UI", Arial, sans-serif; fill: #111827; }
.title { font-size: 24px; font-weight: 700; }
.axis { font-size: 13px; fill: #6b7280; }
.label { font-size: 13px; }
.small { font-size: 12px; fill: #6b7280; }
.value { font-size: 12px; font-weight: 600; }
</style>
<text class="title" x="560.0" y="46" text-anchor="middle">Overall RLVR Pipeline for Game-of-24</text>
<defs><marker id="arrow" markerWidth="10" markerHeight="10" refX="8" refY="3" orient="auto" markerUnits="strokeWidth"><path d="M0,0 L0,6 L9,3 z" fill="#374151"/></marker></defs>
<line x1="272" y1="160.0" x2="318" y2="160.0" stroke="#374151" stroke-width="2" marker-end="url(#arrow)"/>
<line x1="532" y1="160.0" x2="578" y2="160.0" stroke="#374151" stroke-width="2" marker-end="url(#arrow)"/>
<line x1="792" y1="160.0" x2="838" y2="160.0" stroke="#374151" stroke-width="2" marker-end="url(#arrow)"/>
<line x1="945" y1="205" x2="945" y2="335" stroke="#374151" stroke-width="2" marker-end="url(#arrow)"/>
<line x1="850" y1="380" x2="780" y2="380" stroke="#374151" stroke-width="2" marker-end="url(#arrow)"/>
<line x1="590" y1="380" x2="520" y2="380" stroke="#374151" stroke-width="2" marker-end="url(#arrow)"/>
<line x1="330" y1="380" x2="260" y2="380" stroke="#374151" stroke-width="2" marker-end="url(#arrow)"/>
<rect x="70" y="115" width="190" height="90" rx="10" fill="#f8fafc" stroke="#cbd5e1" stroke-width="1.5"/>
<text class="label" x="165.0" y="151" text-anchor="middle" font-weight="700">Datasets</text>
<text class="small" x="165.0" y="177" text-anchor="middle">24-game / official / Countdown</text>
<rect x="330" y="115" width="190" height="90" rx="10" fill="#f8fafc" stroke="#cbd5e1" stroke-width="1.5"/>
<text class="label" x="425.0" y="151" text-anchor="middle" font-weight="700">Prompt</text>
<text class="small" x="425.0" y="177" text-anchor="middle">target-aware R1 format</text>
<rect x="590" y="115" width="190" height="90" rx="10" fill="#f8fafc" stroke="#cbd5e1" stroke-width="1.5"/>
<text class="label" x="685.0" y="151" text-anchor="middle" font-weight="700">SFT Warm-up</text>
<text class="small" x="685.0" y="177" text-anchor="middle">format + expressions + refusal</text>
<rect x="850" y="115" width="190" height="90" rx="10" fill="#f8fafc" stroke="#cbd5e1" stroke-width="1.5"/>
<text class="label" x="945.0" y="151" text-anchor="middle" font-weight="700">GRPO RLVR</text>
<text class="small" x="945.0" y="177" text-anchor="middle">group rewards from verifier</text>
<rect x="590" y="335" width="190" height="90" rx="10" fill="#f8fafc" stroke="#cbd5e1" stroke-width="1.5"/>
<text class="label" x="685.0" y="371" text-anchor="middle" font-weight="700">Best-of-N</text>
<text class="small" x="685.0" y="397" text-anchor="middle">sample candidate pool</text>
<rect x="850" y="335" width="190" height="90" rx="10" fill="#f8fafc" stroke="#cbd5e1" stroke-width="1.5"/>
<text class="label" x="945.0" y="371" text-anchor="middle" font-weight="700">Verifier</text>
<text class="small" x="945.0" y="397" text-anchor="middle">AST check + target value</text>
<rect x="330" y="335" width="190" height="90" rx="10" fill="#f8fafc" stroke="#cbd5e1" stroke-width="1.5"/>
<text class="label" x="425.0" y="371" text-anchor="middle" font-weight="700">Analysis</text>
<text class="small" x="425.0" y="397" text-anchor="middle">errors / hard split / hallucination</text>
<rect x="70" y="335" width="190" height="90" rx="10" fill="#f8fafc" stroke="#cbd5e1" stroke-width="1.5"/>
<text class="label" x="165.0" y="371" text-anchor="middle" font-weight="700">Report</text>
<text class="small" x="165.0" y="397" text-anchor="middle">solve rate + limits</text>
</svg>
