<svg xmlns="http://www.w3.org/2000/svg" width="980" height="560" viewBox="0 0 980 560">
<rect width="100%" height="100%" fill="#ffffff"/>
<style>
text { font-family: -apple-system, BlinkMacSystemFont, "Segoe UI", Arial, sans-serif; fill: #111827; }
.title { font-size: 24px; font-weight: 700; }
.axis { font-size: 13px; fill: #6b7280; }
.label { font-size: 13px; }
.small { font-size: 12px; fill: #6b7280; }
.value { font-size: 12px; font-weight: 600; }
</style>
<text class="title" x="490.0" y="38" text-anchor="middle">GRPO Hyperparameter Stability Ablation</text>
<line x1="84" y1="480.0" x2="934" y2="480.0" stroke="#e5e7eb" stroke-width="1"/>
<text class="axis" x="70" y="484.0" text-anchor="end">0%</text>
<line x1="84" y1="320.0" x2="934" y2="320.0" stroke="#e5e7eb" stroke-width="1"/>
<text class="axis" x="70" y="324.0" text-anchor="end">20%</text>
<line x1="84" y1="160.0" x2="934" y2="160.0" stroke="#e5e7eb" stroke-width="1"/>
<text class="axis" x="70" y="164.0" text-anchor="end">40%</text>
<line x1="84" y1="80" x2="84" y2="480" stroke="#9ca3af"/>
<line x1="84" y1="480" x2="934" y2="480" stroke="#9ca3af"/>
<text class="axis" x="225.7" y="514" text-anchor="middle">8e-7/s300</text>
<rect x="160.7" y="132.0" width="38.0" height="348.0" rx="3" fill="#2563eb"/>
<text class="value" x="179.7" y="126.0" text-anchor="middle">43.5</text>
<rect x="206.7" y="224.0" width="38.0" height="256.0" rx="3" fill="#dc2626"/>
<text class="value" x="225.7" y="218.0" text-anchor="middle">32.0</text>
<rect x="252.7" y="208.0" width="38.0" height="272.0" rx="3" fill="#ea580c"/>
<text class="value" x="271.7" y="202.0" text-anchor="middle">34.0</text>
<text class="axis" x="509.0" y="514" text-anchor="middle">3e-7/s300</text>
<rect x="444.0" y="168.0" width="38.0" height="312.0" rx="3" fill="#2563eb"/>
<text class="value" x="463.0" y="162.0" text-anchor="middle">39.0</text>
<rect x="490.0" y="280.0" width="38.0" height="200.0" rx="3" fill="#dc2626"/>
<text class="value" x="509.0" y="274.0" text-anchor="middle">25.0</text>
<rect x="536.0" y="344.0" width="38.0" height="136.0" rx="3" fill="#ea580c"/>
<text class="value" x="555.0" y="338.0" text-anchor="middle">17.0</text>
<text class="axis" x="792.3" y="514" text-anchor="middle">3e-7/s600</text>
<rect x="727.3" y="148.0" width="38.0" height="332.0" rx="3" fill="#2563eb"/>
<text class="value" x="746.3" y="142.0" text-anchor="middle">41.5</text>
<rect x="773.3" y="232.0" width="38.0" height="248.0" rx="3" fill="#dc2626"/>
<text class="value" x="792.3" y="226.0" text-anchor="middle">31.0</text>
<rect x="819.3" y="280.0" width="38.0" height="200.0" rx="3" fill="#ea580c"/>
<text class="value" x="838.3" y="274.0" text-anchor="middle">25.0</text>
<rect x="92" y="518" width="14" height="14" fill="#2563eb" rx="2"/>
<text class="label" x="114" y="530">OOD bo8</text>
<rect x="260" y="518" width="14" height="14" fill="#dc2626" rx="2"/>
<text class="label" x="282" y="530">Hard bo8</text>
<rect x="428" y="518" width="14" height="14" fill="#ea580c" rx="2"/>
<text class="label" x="450" y="530">Greedy halluc.</text>
</svg>
